# xmcd
#
# Track frame offsets: 
#        150
#        19019
#        40123
#        62824
#        82690
#        102963
#        121910
#        143502
#        163354
#        183565
#        201273
#        220408
#        239440
#        267169
#        293219
#        309572
#
# Disc length: 4357 seconds
#
# Revision: 3
# Processed by: cddbd v1.5.2PL0 Copyright (c) Steve Scherf et al.
# Submitted via: ExactAudioCopy v1.0b2
#
DISCID=e5110310
DTITLE=Various Rock - Munich's Hardest Hits Vol. 8
DYEAR=06
DGENRE=Rock
TTITLE0=Roger Lapointe - Tie You Up
TTITLE1=Rod Mcinnes - Piece Of Your Heart
TTITLE2=Mariah - Knocked Down
TTITLE3=Hit The Ground Runnin' - Feels Good
TTITLE4=Atello - Hold On
TTITLE5=My Land - Love In Chains
TTITLE6=Blind Alley - Voices
TTITLE7=Rox Diamond - Joann
TTITLE8=Mirko Hirsch - SOS
TTITLE9=7th Heaven - Ghost Of Me
TTITLE10=Sam Alex - Back In Love
TTITLE11=Sheela (feat. Michael Sadler) - Feed Your Heart
TTITLE12=Felony - Justice
TTITLE13=Alyson Avenue - I Am (Your Pleasuremaker)
TTITLE14=Scream Silence - Creed
TTITLE15=Halifax - Should I Believe
EXTD=
EXTT0=
EXTT1=
EXTT2=
EXTT3=
EXTT4=
EXTT5=
EXTT6=
EXTT7=
EXTT8=
EXTT9=
EXTT10=
EXTT11=
EXTT12=
EXTT13=
EXTT14=
EXTT15=
PLAYORDER=
